<mxfile host="65bd71144e">
    <diagram name="Page-1" id="e7e014a7-5840-1c2e-5031-d8a46d1fe8dd">
        <mxGraphModel dx="437" dy="269" grid="1" gridSize="10" guides="1" tooltips="1" connect="1" arrows="1" fold="1" page="1" pageScale="1" pageWidth="1169" pageHeight="826" background="none" math="0" shadow="0">
            <root>
                <mxCell id="0"/>
                <mxCell id="1" parent="0"/>
                <mxCell id="hQxuQb7kFQIrsYpKP3EI-41" value="" style="ellipse;html=1;shape=startState;labelBackgroundColor=none;" parent="1" vertex="1">
                    <mxGeometry x="220" y="30" width="30" height="30" as="geometry"/>
                </mxCell>
                <mxCell id="hQxuQb7kFQIrsYpKP3EI-42" value="" style="edgeStyle=orthogonalEdgeStyle;html=1;verticalAlign=bottom;endArrow=open;endSize=8;rounded=0;labelBackgroundColor=none;fontColor=default;exitX=0.913;exitY=0.52;exitDx=0;exitDy=0;entryX=0;entryY=0.427;entryDx=0;entryDy=0;entryPerimeter=0;exitPerimeter=0;" parent="1" source="hQxuQb7kFQIrsYpKP3EI-41" edge="1" target="hQxuQb7kFQIrsYpKP3EI-43">
                    <mxGeometry relative="1" as="geometry">
                        <mxPoint x="115" y="110" as="targetPoint"/>
                    </mxGeometry>
                </mxCell>
                <mxCell id="hQxuQb7kFQIrsYpKP3EI-43" value="login" style="shape=mxgraph.uml25.behaviorAction;html=1;rounded=1;absoluteArcSize=1;arcSize=10;align=left;spacingLeft=5;whiteSpace=wrap;labelBackgroundColor=none;" parent="1" vertex="1">
                    <mxGeometry x="305" y="20" width="190" height="60" as="geometry"/>
                </mxCell>
                <mxCell id="hQxuQb7kFQIrsYpKP3EI-44" value="" style="edgeStyle=orthogonalEdgeStyle;html=1;verticalAlign=bottom;endArrow=open;endSize=8;rounded=0;exitX=0.504;exitY=1.045;exitDx=0;exitDy=0;exitPerimeter=0;labelBackgroundColor=none;fontColor=default;entryX=0.5;entryY=0;entryDx=0;entryDy=0;" parent="1" source="hQxuQb7kFQIrsYpKP3EI-43" edge="1" target="hQxuQb7kFQIrsYpKP3EI-45">
                    <mxGeometry relative="1" as="geometry">
                        <mxPoint x="340" y="138" as="targetPoint"/>
                        <mxPoint x="290" y="110" as="sourcePoint"/>
                    </mxGeometry>
                </mxCell>
                <mxCell id="hQxuQb7kFQIrsYpKP3EI-45" value="Select view sales&amp;nbsp;&lt;span style=&quot;color: rgb(63, 63, 63);&quot;&gt;summaries&lt;/span&gt;&lt;div&gt;&amp;nbsp;option&lt;/div&gt;" style="rounded=1;whiteSpace=wrap;html=1;arcSize=40;labelBackgroundColor=none;" parent="1" vertex="1">
                    <mxGeometry x="340" y="130" width="120" height="60" as="geometry"/>
                </mxCell>
                <mxCell id="hQxuQb7kFQIrsYpKP3EI-46" value="" style="edgeStyle=orthogonalEdgeStyle;html=1;verticalAlign=bottom;endArrow=open;endSize=8;rounded=0;entryX=0.5;entryY=0;entryDx=0;entryDy=0;labelBackgroundColor=none;fontColor=default;" parent="1" source="hQxuQb7kFQIrsYpKP3EI-45" edge="1">
                    <mxGeometry relative="1" as="geometry">
                        <mxPoint x="400" y="230" as="targetPoint"/>
                    </mxGeometry>
                </mxCell>
                <mxCell id="hQxuQb7kFQIrsYpKP3EI-59" value="Fetch data from database" style="rounded=1;whiteSpace=wrap;html=1;arcSize=40;labelBackgroundColor=none;" parent="1" vertex="1">
                    <mxGeometry x="340" y="230" width="120" height="40" as="geometry"/>
                </mxCell>
                <mxCell id="hQxuQb7kFQIrsYpKP3EI-60" value="" style="edgeStyle=orthogonalEdgeStyle;html=1;verticalAlign=bottom;endArrow=open;endSize=8;rounded=0;labelBackgroundColor=none;fontColor=default;entryX=0.5;entryY=0;entryDx=0;entryDy=0;" parent="1" source="hQxuQb7kFQIrsYpKP3EI-59" edge="1" target="hQxuQb7kFQIrsYpKP3EI-61">
                    <mxGeometry relative="1" as="geometry">
                        <mxPoint x="400" y="300" as="targetPoint"/>
                    </mxGeometry>
                </mxCell>
                <mxCell id="hQxuQb7kFQIrsYpKP3EI-61" value="Generate&amp;nbsp;&lt;span style=&quot;color: rgb(63, 63, 63);&quot;&gt;summaries&lt;/span&gt;" style="rounded=1;whiteSpace=wrap;html=1;arcSize=40;labelBackgroundColor=none;" parent="1" vertex="1">
                    <mxGeometry x="340" y="310" width="120" height="40" as="geometry"/>
                </mxCell>
                <mxCell id="hQxuQb7kFQIrsYpKP3EI-62" value="" style="edgeStyle=orthogonalEdgeStyle;html=1;verticalAlign=bottom;endArrow=open;endSize=8;rounded=0;labelBackgroundColor=none;fontColor=default;entryX=0.5;entryY=0;entryDx=0;entryDy=0;" parent="1" source="hQxuQb7kFQIrsYpKP3EI-61" edge="1" target="hQxuQb7kFQIrsYpKP3EI-63">
                    <mxGeometry relative="1" as="geometry">
                        <mxPoint x="400" y="380" as="targetPoint"/>
                    </mxGeometry>
                </mxCell>
                <mxCell id="hQxuQb7kFQIrsYpKP3EI-63" value="Display&amp;nbsp;&lt;span style=&quot;color: rgb(63, 63, 63);&quot;&gt;summaries&lt;/span&gt;" style="rounded=1;whiteSpace=wrap;html=1;arcSize=40;labelBackgroundColor=none;" parent="1" vertex="1">
                    <mxGeometry x="340" y="393" width="120" height="40" as="geometry"/>
                </mxCell>
                <mxCell id="hQxuQb7kFQIrsYpKP3EI-64" value="" style="edgeStyle=orthogonalEdgeStyle;html=1;verticalAlign=bottom;endArrow=open;endSize=8;rounded=0;labelBackgroundColor=none;fontColor=default;entryX=0.5;entryY=0;entryDx=0;entryDy=0;" parent="1" source="hQxuQb7kFQIrsYpKP3EI-63" edge="1" target="2">
                    <mxGeometry relative="1" as="geometry">
                        <mxPoint x="400" y="470" as="targetPoint"/>
                    </mxGeometry>
                </mxCell>
                <mxCell id="2" value="" style="ellipse;html=1;shape=endState;fillColor=strokeColor;" vertex="1" parent="1">
                    <mxGeometry x="385" y="460" width="30" height="30" as="geometry"/>
                </mxCell>
            </root>
        </mxGraphModel>
    </diagram>
</mxfile>